<svg xmlns="http://www.w3.org/2000/svg" width="37" height="30" fill="none"><path fill="url(#a)" fill-rule="evenodd" d="M12.463 30C4.06 30 .284 26.265 0 19.73h8.16c.203 2.273 1.136 3.694 3.735 3.694 2.273 0 3.288-1.015 3.288-2.923 0-1.949-1.015-2.964-3.41-2.964H9.459v-5.561h2.192c2.436 0 3.532-1.015 3.532-2.923 0-1.502-.975-2.517-2.923-2.517-1.99 0-3.085 1.177-3.41 3.41H.73C1.178 3.978 4.913 0 12.504 0 19.608 0 23.79 3.045 23.79 8.038c0 3.248-1.867 5.318-4.993 6.252 3.41.609 5.683 3.004 5.683 6.454 0 5.521-4.1 9.256-12.016 9.256Zm19.404-.04c-2.557 0-4.465-1.95-4.465-4.385 0-2.436 1.867-4.344 4.465-4.344s4.547 1.949 4.547 4.344c0 2.436-1.949 4.384-4.547 4.384Z" clip-rule="evenodd"/><defs><linearGradient id="a" x1="0" x2="36.414" y1="0" y2="0" gradientUnits="userSpaceOnUse"><stop offset=".008" stop-color="#EC5C03"/><stop offset=".53" stop-color="#853E9F"/><stop offset="1" stop-color="#3A2DE3"/></linearGradient></defs></svg>