<svg xmlns="http://www.w3.org/2000/svg" width="28" height="17" fill="none"><path fill="#70D68C" d="m20.973 5.836 2.343-3.984a.762.762 0 0 0 0-.586.697.697 0 0 0-.351-.47C22.809.72 22.613.7 22.379.739a.697.697 0 0 0-.469.352l-2.344 4.043A14.164 14.164 0 0 0 14 4.02c-1.953 0-3.809.37-5.566 1.113L6.09 1.09C5.934.895 5.758.777 5.563.738a.804.804 0 0 0-.586.117.697.697 0 0 0-.352.47.799.799 0 0 0 .059.527l2.343 3.984a13.819 13.819 0 0 0-4.746 4.512A13.705 13.705 0 0 0 .231 16.5H27.77a13.321 13.321 0 0 0-2.11-6.152c-1.172-1.875-2.734-3.38-4.687-4.512ZM7.73 13.043c-.43 0-.8-.137-1.113-.41a1.635 1.635 0 0 1-.41-1.113c0-.43.137-.801.41-1.114a1.521 1.521 0 0 1 1.113-.469c.43 0 .801.157 1.114.47.312.312.469.683.469 1.113 0 .43-.157.8-.47 1.113-.312.273-.683.41-1.113.41Zm12.54 0c-.43 0-.801-.137-1.114-.41a1.521 1.521 0 0 1-.468-1.113c0-.43.156-.801.468-1.114a1.521 1.521 0 0 1 1.114-.469c.43 0 .78.157 1.054.47.313.312.469.683.469 1.113 0 .43-.156.8-.469 1.113-.273.273-.625.41-1.055.41Z"/></svg>