<svg xmlns="http://www.w3.org/2000/svg" width="26" height="32" fill="none"><path stroke="url(#a)" stroke-linecap="round" d="M22.867 8.952c.784.361 2.386.723 2.53-.723V6.28a2 2 0 0 0-1.194-1.83l-7.225-3.18a1 1 0 0 0-1.1.198l-1.881 1.826a.709.709 0 0 0 .169 1.139v0m8.701 4.518-8.701-4.518m8.701 4.518c-1.711 4.013-6.14 11.993-10.398 12.451a1.168 1.168 0 0 0-.49.158l-3.031 1.865m5.218-18.992-8.563 3.68a1 1 0 0 0-.43.354l-3.998 5.83a1 1 0 0 0-.175.566v.139a1 1 0 0 0 .14.51l3.294 5.547m0 0c.457-.495 1.463-1.404 2.799-2.262m-2.8 2.262c.05.584.143 1.073.27 1.482m2.53-3.744a15.31 15.31 0 0 1 2.188-1.174c.273-.118.487-.342.602-.616.177-.422.462-1.02.859-1.701.39-.671-.02-1.624-.736-1.922a5.93 5.93 0 0 1-.43-.198c-.607-.312-1.499-.199-1.978.287-.356.36-.822.765-1.412 1.178-.504.352-.644 1.073-.441 1.653.032.092.062.188.087.287.1.398.352.771.64 1.063.252.253.502.628.621 1.143ZM6.06 24.3a1.92 1.92 0 0 0 1.446.013l1.442-.887M6.06 24.3v3.808m0-3.808c-.53-.227-1.044-.745-1.358-1.758m0 0A4.34 4.34 0 0 0 6.06 31a4.337 4.337 0 0 0 2.888-7.574"/><defs><linearGradient id="a" x1="1" x2="25.398" y1="1" y2="1" gradientUnits="userSpaceOnUse"><stop offset=".008" stop-color="#EC5C03"/><stop offset=".53" stop-color="#853E9F"/><stop offset="1" stop-color="#3A2DE3"/></linearGradient></defs></svg>