<svg xmlns="http://www.w3.org/2000/svg" width="42" height="26" fill="none"><path stroke="url(#a)" d="M9.139 3.415c.12-.731.17-1.182.121-1.214C7.322.908 4.62.57 2 .51a.983.983 0 0 0-1 .99v13.549a1 1 0 0 0 1 1h3.78a1 1 0 0 0 .977-.791l.142-.667m2.24-11.176h8.381m-8.381 0c-.382 2.334-1.464 7.529-2.24 11.176M17.52 3.415c-7.582 7.346-1.53 8.914 1.253 6.056.139-.142.308-.252.495-.315a7.26 7.26 0 0 0 1.756-.868c.387-.264.907-.32 1.279-.035 1.788 1.371 4.973 4.421 7.607 7.038 1.122 1.114-.609-.603 2.916 2.944M17.52 3.415C20.53.5 24.08 2.444 30.983 5.602M6.899 14.59c4.512 4.535 13.974 12.973 15.723 10.446l.32-.485m-4.207-4.373c.967 1.187 2.602 3.447 4.207 4.373m-1.535-7.046c1.974 1.974 3.697 4.01 5.17 4.9m-2.254-7.815c1.856 1.999 4.131 5.004 5.89 5.91m2.613-2.266c0 2.43-1.38 2.902-2.614 2.266m2.614-2.266 2.304-1.7m-12.188 8.017c1.35.779 2.679.61 3.567-1.944l.067-.202m0 0c1.428.864 2.62.65 3.577-1.742l.06-.163m4.917-3.967.123.327a1 1 0 0 0 .935.645h3.655a1 1 0 0 0 1-1V2.878a.956.956 0 0 0-.918-.97c-2.09-.063-5.679.12-8.85 1.171-.517.172-.767.745-.573 1.255l.48 1.268m4.148 10.932L30.983 5.602"/><defs><linearGradient id="a" x1="1" x2="40.843" y1=".5" y2=".5" gradientUnits="userSpaceOnUse"><stop offset=".008" stop-color="#EC5C03"/><stop offset=".53" stop-color="#853E9F"/><stop offset="1" stop-color="#3A2DE3"/></linearGradient></defs></svg>