<svg xmlns="http://www.w3.org/2000/svg" width="30" height="30" fill="none"><path stroke="url(#a)" stroke-linecap="round" stroke-linejoin="round" d="M24.375 6.563H5.625A1.874 1.874 0 0 0 3.75 8.438v13.124c0 1.036.84 1.875 1.875 1.875h18.75a1.875 1.875 0 0 0 1.875-1.875V8.438c0-1.035-.84-1.874-1.875-1.874Z"/><path stroke="#fff" stroke-linecap="round" stroke-linejoin="round" stroke-opacity=".3" d="M24.375 6.563H5.625A1.874 1.874 0 0 0 3.75 8.438v13.124c0 1.036.84 1.875 1.875 1.875h18.75a1.875 1.875 0 0 0 1.875-1.875V8.438c0-1.035-.84-1.874-1.875-1.874Z"/><path stroke="url(#b)" stroke-linecap="round" stroke-linejoin="round" d="M3.75 14.063h6.656a.925.925 0 0 1 .914.75 3.762 3.762 0 0 0 7.36 0 .926.926 0 0 1 .914-.75h6.656"/><path stroke="#fff" stroke-linecap="round" stroke-linejoin="round" stroke-opacity=".3" d="M3.75 14.063h6.656a.925.925 0 0 1 .914.75 3.762 3.762 0 0 0 7.36 0 .926.926 0 0 1 .914-.75h6.656"/><path stroke="url(#c)" stroke-linecap="round" stroke-linejoin="round" d="M3.75 10.313h22.5"/><path stroke="#fff" stroke-linecap="round" stroke-linejoin="round" stroke-opacity=".3" d="M3.75 10.313h22.5"/><defs><linearGradient id="a" x1="3.75" x2="26.25" y1="6.563" y2="6.563" gradientUnits="userSpaceOnUse"><stop offset=".008" stop-color="#EC5C03"/><stop offset=".53" stop-color="#853E9F"/><stop offset="1" stop-color="#3A2DE3"/></linearGradient><linearGradient id="b" x1="3.75" x2="26.25" y1="14.063" y2="14.063" gradientUnits="userSpaceOnUse"><stop offset=".008" stop-color="#EC5C03"/><stop offset=".53" stop-color="#853E9F"/><stop offset="1" stop-color="#3A2DE3"/></linearGradient><linearGradient id="c" x1="3.75" x2="26.25" y1="10.313" y2="10.313" gradientUnits="userSpaceOnUse"><stop offset=".008" stop-color="#EC5C03"/><stop offset=".53" stop-color="#853E9F"/><stop offset="1" stop-color="#3A2DE3"/></linearGradient></defs></svg>