<svg xmlns="http://www.w3.org/2000/svg" width="30" height="30" fill="none"><mask id="a" width="28" height="28" x="1" y="1" maskUnits="userSpaceOnUse" style="mask-type:luminance"><path fill="#fff" fill-rule="evenodd" d="M1.5 1.679h26.95v26.95H1.5V1.678Z" clip-rule="evenodd"/></mask><g fill-rule="evenodd" clip-rule="evenodd" mask="url(#a)"><path fill="url(#b)" d="M15.194 5.207a.45.45 0 0 0 .548-.067l2.377-2.377 2.378 2.377a.45.45 0 0 0 .548.067l3.17-1.901-1.881 3.762h-8.43l-1.88-3.762 3.17 1.901Zm-1.968 2.511a.448.448 0 0 0 .4.248h8.985c.17 0 .325-.096.401-.248l2.696-5.39a.45.45 0 0 0-.633-.586l-4.191 2.515-2.448-2.446a.448.448 0 0 0-.635 0l-2.447 2.446-4.19-2.515a.449.449 0 0 0-.633.587l2.695 5.39Zm9.385 1.147h-8.984a.448.448 0 1 0 0 .897h8.984a.448.448 0 1 0 0-.897Zm-1.01 17.24c-4.696 1.923-4.965 1.909-7.051 1.12l-8.056-2.684c.428-1.67 1.013-4.085 1.343-6.006l9.861 2.19c1.338.335 1.874.897 1.921 2.046l-1.18.296c-.42.105-.866.116-1.294.03l-4.914-.982a.448.448 0 1 0-.176.88l4.914.983a3.847 3.847 0 0 0 1.688-.04l1.524-.38 4.339-1.086a2.69 2.69 0 0 1 2.835 1.016L21.6 26.105ZM5.563 24.548a.417.417 0 0 0-.076.13.439.439 0 0 0-.012.21c-.105.402-.195.74-.258.977-.616-.11-1.807-.3-2.82-.35V16.24c1.733.132 3.998.451 4.744.864-.218 1.981-1.048 5.39-1.578 7.444Zm8.323-12.988h8.5c.733.99 4.268 5.9 4.268 8.533l.002.76c.002.327.004.677.004.954a3.59 3.59 0 0 0-2.358-.205l-3.806.95c-.071-.85-.377-1.497-.964-1.965.072-.048.143-.09.215-.15a1.73 1.73 0 0 0 .618-1.323c0-.98-.695-1.617-2.146-1.909l-.097-.02c-.934-.187-1.35-.499-1.35-1.012 0-.563.605-1.02 1.35-1.02.712 0 1.304.421 1.346.961a.45.45 0 0 0 .895-.07c-.077-1.003-1.062-1.79-2.242-1.79-1.24 0-2.248.861-2.248 1.919 0 .981.698 1.618 2.148 1.909l.101.02c.93.188 1.345.5 1.345 1.012a.823.823 0 0 1-.299.636 1.767 1.767 0 0 1-.579.318 5.898 5.898 0 0 0-.684-.217l-7.356-1.634c1.029-2.58 2.842-5.793 3.337-6.657Zm14.517 11.927a3.629 3.629 0 0 0-.854-1.097c.01-.078.012-.267.005-1.54l-.002-.757c0-3.226-4.398-9.01-4.584-9.255a.45.45 0 0 0-.357-.177h-8.984a.45.45 0 0 0-.388.222c-.097.167-2.375 4.064-3.579 7.137l-1.683-.374c.034-.254.064-.497.083-.716a.445.445 0 0 0-.139-.364c-.967-.916-5.122-1.206-5.946-1.255a.45.45 0 0 0-.475.449v10.194c0 .247.2.449.449.449 1.355 0 3.485.415 3.507.419a.45.45 0 0 0 .52-.321c.017-.063.13-.473.291-1.089l7.983 2.66c.933.353 1.58.557 2.306.557 1.134 0 2.467-.498 5.401-1.7l6.23-2.832a.45.45 0 0 0 .216-.61Z"/><path fill="#fff" fill-opacity=".3" d="M15.194 5.207a.45.45 0 0 0 .548-.067l2.377-2.377 2.378 2.377a.45.45 0 0 0 .548.067l3.17-1.901-1.881 3.762h-8.43l-1.88-3.762 3.17 1.901Zm-1.968 2.511a.448.448 0 0 0 .4.248h8.985c.17 0 .325-.096.401-.248l2.696-5.39a.45.45 0 0 0-.633-.586l-4.191 2.515-2.448-2.446a.448.448 0 0 0-.635 0l-2.447 2.446-4.19-2.515a.449.449 0 0 0-.633.587l2.695 5.39Zm9.385 1.147h-8.984a.448.448 0 1 0 0 .897h8.984a.448.448 0 1 0 0-.897Zm-1.01 17.24c-4.696 1.923-4.965 1.909-7.051 1.12l-8.056-2.684c.428-1.67 1.013-4.085 1.343-6.006l9.861 2.19c1.338.335 1.874.897 1.921 2.046l-1.18.296c-.42.105-.866.116-1.294.03l-4.914-.982a.448.448 0 1 0-.176.88l4.914.983a3.847 3.847 0 0 0 1.688-.04l1.524-.38 4.339-1.086a2.69 2.69 0 0 1 2.835 1.016L21.6 26.105ZM5.563 24.548a.417.417 0 0 0-.076.13.439.439 0 0 0-.012.21c-.105.402-.195.74-.258.977-.616-.11-1.807-.3-2.82-.35V16.24c1.733.132 3.998.451 4.744.864-.218 1.981-1.048 5.39-1.578 7.444Zm8.323-12.988h8.5c.733.99 4.268 5.9 4.268 8.533l.002.76c.002.327.004.677.004.954a3.59 3.59 0 0 0-2.358-.205l-3.806.95c-.071-.85-.377-1.497-.964-1.965.072-.048.143-.09.215-.15a1.73 1.73 0 0 0 .618-1.323c0-.98-.695-1.617-2.146-1.909l-.097-.02c-.934-.187-1.35-.499-1.35-1.012 0-.563.605-1.02 1.35-1.02.712 0 1.304.421 1.346.961a.45.45 0 0 0 .895-.07c-.077-1.003-1.062-1.79-2.242-1.79-1.24 0-2.248.861-2.248 1.919 0 .981.698 1.618 2.148 1.909l.101.02c.93.188 1.345.5 1.345 1.012a.823.823 0 0 1-.299.636 1.767 1.767 0 0 1-.579.318 5.898 5.898 0 0 0-.684-.217l-7.356-1.634c1.029-2.58 2.842-5.793 3.337-6.657Zm14.517 11.927a3.629 3.629 0 0 0-.854-1.097c.01-.078.012-.267.005-1.54l-.002-.757c0-3.226-4.398-9.01-4.584-9.255a.45.45 0 0 0-.357-.177h-8.984a.45.45 0 0 0-.388.222c-.097.167-2.375 4.064-3.579 7.137l-1.683-.374c.034-.254.064-.497.083-.716a.445.445 0 0 0-.139-.364c-.967-.916-5.122-1.206-5.946-1.255a.45.45 0 0 0-.475.449v10.194c0 .247.2.449.449.449 1.355 0 3.485.415 3.507.419a.45.45 0 0 0 .52-.321c.017-.063.13-.473.291-1.089l7.983 2.66c.933.353 1.58.557 2.306.557 1.134 0 2.467-.498 5.401-1.7l6.23-2.832a.45.45 0 0 0 .216-.61Z"/></g><defs><linearGradient id="b" x1="1.5" x2="28.451" y1="1.678" y2="1.678" gradientUnits="userSpaceOnUse"><stop offset=".008" stop-color="#EC5C03"/><stop offset=".53" stop-color="#853E9F"/><stop offset="1" stop-color="#3A2DE3"/></linearGradient></defs></svg>