<svg xmlns="http://www.w3.org/2000/svg" width="10" height="40" fill="none"><path fill="#EB3223" d="M7.344.656h2.312V2H.344V.656h2.312L3.344 0h3.312l.688.656ZM2.344 4v6.656h5.312V4H2.344ZM1 10.656v-8h8v8c0 .354-.135.667-.406.938-.271.27-.584.406-.938.406H2.344c-.354 0-.667-.135-.938-.406-.27-.271-.406-.584-.406-.938Zm6.344 18h2.312V30H.344v-1.344h2.312L3.344 28h3.312l.688.656Zm-5 3.344v6.656h5.312V32H2.344ZM1 38.656v-8h8v8c0 .354-.135.667-.406.938-.271.27-.584.406-.938.406H2.344c-.354 0-.667-.135-.938-.406-.27-.271-.406-.584-.406-.938Z"/></svg>