<svg xmlns="http://www.w3.org/2000/svg" width="30" height="30" fill="none"><path fill="#039" d="M0 15C0 6.716 6.716 0 15 0c8.284 0 15 6.716 15 15 0 8.284-6.716 15-15 15-8.284 0-15-6.716-15-15Z"/><path fill="#FFDA44" d="m15 6 .48 1.473h1.542l-1.254.907.48 1.479-1.254-.913-1.253.913.48-1.479-1.254-.907h1.548L15 6ZM8.634 8.634l1.386.705 1.092-1.098-.242 1.531 1.38.705-1.53.242-.243 1.531-.705-1.386-1.53.248 1.097-1.097-.705-1.38ZM6 15l1.473-.48v-1.542l.907 1.254 1.479-.48-.913 1.254.913 1.253-1.479-.48-.907 1.254v-1.548L6 15Zm2.634 6.366.705-1.386-1.098-1.092 1.531.242.705-1.38.242 1.53 1.531.243-1.386.705.248 1.53-1.097-1.097-1.38.705ZM15 24l-.48-1.473h-1.542l1.254-.907-.48-1.479 1.254.913 1.253-.913-.48 1.479 1.254.907h-1.548L15 24Zm6.366-2.634-1.386-.705-1.092 1.098.242-1.531-1.38-.705 1.53-.242.243-1.531.705 1.386 1.53-.248-1.097 1.097.705 1.38ZM24 15l-1.473.48v1.542l-.907-1.254-1.479.48.913-1.254-.913-1.253 1.479.48.907-1.254v1.548L24 15Zm-2.634-6.366-.705 1.386 1.098 1.092-1.531-.242-.705 1.38-.242-1.53-1.531-.243 1.386-.705-.248-1.53 1.097 1.097 1.38-.705Z"/></svg>