<svg xmlns="http://www.w3.org/2000/svg" width="20" height="20" fill="none"><circle cx="10" cy="10" r="9.5" fill="#171F69" stroke="#fff"/><mask id="a" width="20" height="20" x="0" y="0" maskUnits="userSpaceOnUse" style="mask-type:luminance"><circle cx="10" cy="10" r="9.5" fill="#fff" stroke="#fff"/></mask><g fill-rule="evenodd" clip-rule="evenodd" mask="url(#a)"><path fill="#fff" d="M-5.771 6.8h3.828L-5.77 4.88V-.13h.074L6.578 5.987V-.13h6.912v6.12L25.766-.13h.117v4.998L22.01 6.801h3.872v6.935H22.01l3.872 1.933v5h-.117l-12.276-6.12v6.12H6.578v-6.12l-12.275 6.12h-.074v-5.012l3.828-1.92H-5.77V6.8Z"/><path fill="#ED1B2D" d="M25.883.71 13.696 6.805h3.32l8.867-4.452V.71Zm0 17.478L17 13.736h3.334l5.548 2.79v1.662ZM3.176 6.805-5.77 2.339v1.663l5.599 2.803h3.348Zm-.028 6.931-8.92 4.46v1.658l12.24-6.118h-3.32Z"/><path fill="#ED1B2D" d="M-5.771 8.24H8.05V-.13h4.061v8.37h13.77v4.06h-13.77v8.368h-4.06v-8.367H-5.771V8.238Z"/></g></svg>