<svg xmlns="http://www.w3.org/2000/svg" width="40" height="40" fill="none"><path fill="#fff" fill-rule="evenodd" d="M0 20C0 8.954 8.956 0 20 0c11.046 0 20 8.954 20 20 0 11.044-8.954 20-20 20C8.956 40 0 31.044 0 20ZM12.12 8.647c.761-.3 1.633-.503 2.91-.563 1.28-.062 1.688-.076 4.947-.083 3.259-.006 3.67.008 4.947.063 1.278.056 2.15.257 2.914.552.79.305 1.46.714 2.128 1.38a5.892 5.892 0 0 1 1.387 2.123c.3.763.503 1.632.564 2.912.06 1.28.075 1.688.081 4.946.007 3.258-.007 3.667-.063 4.948-.055 1.276-.256 2.15-.551 2.912a5.88 5.88 0 0 1-1.38 2.129 5.881 5.881 0 0 1-2.123 1.388c-.762.298-1.63.503-2.91.563-1.28.06-1.69.075-4.947.082-3.258.006-3.67-.007-4.947-.063-1.277-.056-2.15-.257-2.913-.552a5.872 5.872 0 0 1-2.128-1.38 5.878 5.878 0 0 1-1.388-2.123c-.3-.762-.503-1.634-.564-2.91-.062-1.28-.076-1.69-.083-4.948-.006-3.259.007-3.67.063-4.947.056-1.277.257-2.15.552-2.914.305-.79.715-1.46 1.38-2.127a5.873 5.873 0 0 1 2.123-1.388Zm.822 20.722c.423.163 1.058.357 2.228.408 1.266.055 1.644.068 4.848.06 3.205-.006 3.584-.019 4.85-.078 1.168-.056 1.804-.253 2.226-.418.56-.218.96-.478 1.378-.9.42-.42.68-.82.896-1.38.163-.425.357-1.06.408-2.23.055-1.265.067-1.645.06-4.848-.005-3.203-.019-3.583-.079-4.848-.055-1.17-.252-1.805-.417-2.227a3.703 3.703 0 0 0-.9-1.378 3.711 3.711 0 0 0-1.382-.895c-.423-.164-1.059-.357-2.228-.408-1.266-.056-1.646-.068-4.85-.061-3.203.007-3.582.019-4.847.079-1.17.056-1.804.252-2.227.417-.56.219-.96.479-1.379.9-.418.422-.679.82-.895 1.382-.162.423-.358 1.06-.408 2.228-.055 1.265-.067 1.644-.06 4.848.007 3.204.02 3.584.079 4.848.054 1.17.252 1.805.417 2.228.219.56.478.96.9 1.378.422.418.821.68 1.382.895Zm12.255-14.983a1.44 1.44 0 1 1 2.392-1.604 1.44 1.44 0 0 1-2.392 1.604Zm-5.185 11.775a6.161 6.161 0 1 1-.024-12.323 6.162 6.162 0 1 1 .024 12.323Zm-3.342-8.377a4 4 0 1 0 6.66 4.431 4 4 0 0 0-6.66-4.431Z" clip-rule="evenodd"/></svg>