<svg xmlns="http://www.w3.org/2000/svg" width="110" height="28" fill="none"><g fill="#fff" clip-path="url(#a)"><path d="M3.58 22.48c0 .462-.164.808-.491 1.039a1.813 1.813 0 0 1-1.068.347c-1.058 0-1.587-.462-1.587-1.386V1.988C.434 1.065.963.603 2.02.603c1.058 0 1.587.462 1.587 1.385v4.33h6.09c.982 0 2.001.365 3.06 1.097 1.039.73 1.558 1.885 1.558 3.463v8.6c0 1.597-.471 2.694-1.414 3.29-.943.616-2.02.924-3.233.924H6.264c-.693 0-1.058-.452-1.097-1.356 0-.905.366-1.356 1.097-1.356H9.15c.712 0 1.222-.126 1.53-.376.308-.269.461-.654.461-1.154v-8.313c0-.5-.153-.98-.461-1.443l.028.03c-.25-.462-.76-.693-1.53-.693h-5.57L3.58 22.48Zm28.155-3.376c0 .769-.135 1.452-.404 2.048a3.568 3.568 0 0 1-1.155 1.444h.029a7.773 7.773 0 0 1-1.53.808 4.63 4.63 0 0 1-1.558.288H22.47c-.481 0-1-.096-1.558-.288a7.74 7.74 0 0 1-1.53-.808h.029a3.568 3.568 0 0 1-1.155-1.444c-.27-.596-.404-1.279-.404-2.049V7.53c0-.924.53-1.386 1.587-1.386 1.059 0 1.588.462 1.588 1.386v11.342c0 .539.135 1.01.404 1.415.25.462.77.693 1.558.693h3.608c.77 0 1.28-.232 1.53-.694l-.029.03c.308-.462.462-.943.462-1.444V7.53c0-.924.529-1.386 1.587-1.386 1.058 0 1.588.462 1.588 1.386v11.573Zm6.766 3.376c0 .462-.164.808-.49 1.039a1.813 1.813 0 0 1-1.069.347c-1.058 0-1.587-.462-1.587-1.386V1.988c0-.923.53-1.385 1.587-1.385 1.059 0 1.588.462 1.588 1.385v4.33h6.09c.98 0 2 .365 3.06 1.097 1.038.73 1.557 1.885 1.557 3.463v8.6c0 1.597-.47 2.694-1.413 3.29-.943.616-2.02.924-3.233.924h-3.406c-.693 0-1.058-.452-1.097-1.356 0-.905.366-1.356 1.097-1.356h2.886c.712 0 1.222-.126 1.53-.376.308-.269.462-.654.462-1.154v-8.313c0-.5-.154-.98-.462-1.443l.029.03c-.25-.462-.76-.693-1.53-.693h-5.57L38.5 22.48Zm17.534 0c0 .924-.53 1.386-1.587 1.386-1.078 0-1.617-.462-1.617-1.386V7.587c0-.923.54-1.385 1.617-1.385 1.058 0 1.587.462 1.587 1.385V22.48Zm.606-19.914a2.12 2.12 0 0 1-.635 1.558 2.119 2.119 0 0 1-1.558.635 2.216 2.216 0 0 1-1.588-.635 2.12 2.12 0 0 1-.635-1.558c0-.635.212-1.164.635-1.588a2.216 2.216 0 0 1 1.588-.635 2.12 2.12 0 0 1 1.558.635c.423.424.635.953.635 1.588ZM63.22 22.48c0 .924-.53 1.386-1.587 1.386-1.059 0-1.588-.462-1.588-1.386V10.878c0-.789.125-1.472.375-2.05a3.24 3.24 0 0 1 1.184-1.413c1.02-.732 2.04-1.097 3.06-1.097h4.646c.981 0 2 .365 3.06 1.097 1.038.73 1.557 1.885 1.557 3.463V22.48c0 .924-.528 1.386-1.587 1.386-1.058 0-1.587-.462-1.587-1.386V11.137c0-.5-.154-.98-.462-1.443l.029.03c-.25-.462-.76-.693-1.53-.693h-3.608c-.788 0-1.308.23-1.558.693-.27.403-.404.874-.404 1.413V22.48Zm19.088-.808c-.5 0-1.02-.087-1.559-.26a6.644 6.644 0 0 1-1.53-.75c-1.039-.674-1.558-1.809-1.558-3.406v-6.522c0-.809.135-1.502.404-2.079.289-.577.673-1.029 1.154-1.356.5-.308 1.01-.548 1.53-.722a4.824 4.824 0 0 1 1.53-.26h4.848c.482 0 .982.106 1.501.318a6.61 6.61 0 0 1 1.443.808c.443.366.799.847 1.069 1.443.269.597.403 1.27.403 2.02v12.238c0 .808-.134 1.491-.404 2.049a3.827 3.827 0 0 1-1.068 1.443 4.961 4.961 0 0 1-1.443.837c-.5.212-1 .318-1.5.318h-4.85c-1.019 0-2.048-.299-3.088-.895-.538-.308-.933-.703-1.183-1.183-.23-.481-.346-1.04-.346-1.674v-.347c0-.385.125-.692.375-.923.25-.231.644-.346 1.183-.346 1.078.115 1.617.538 1.617 1.27v.317c0 .212.144.442.432.692.308.25.818.376 1.53.376h3.608c.712 0 1.212-.202 1.5-.607a2.18 2.18 0 0 0 .462-1.356v-12.18c0-.48-.153-.914-.462-1.298-.288-.405-.788-.606-1.5-.606h-3.608c-.712 0-1.222.201-1.53.606a2.109 2.109 0 0 0-.433 1.299v6.09c0 .48.145.932.433 1.356.308.404.818.606 1.53.606H85.8c.693 0 1.039.442 1.039 1.328 0 .404-.087.73-.26.98-.154.251-.413.376-.779.376h-3.492Zm17.468 2.02a6.17 6.17 0 0 1-1.703-.23 7.108 7.108 0 0 1-1.559-.722v.029c-.942-.597-1.414-1.694-1.414-3.29v-1.415c0-.788.135-1.472.404-2.05a3.572 3.572 0 0 1 1.183-1.413h-.028c.48-.327.99-.568 1.53-.722a5.074 5.074 0 0 1 1.558-.26h6.378v-2.683c0-.482-.154-.915-.462-1.3-.288-.404-.788-.605-1.5-.605h-3.377c-.731 0-1.241.183-1.53.548-.269.346-.404.76-.404 1.24v.232c0 1-.539 1.5-1.616 1.5-1.078 0-1.617-.5-1.617-1.5v-.26c0-.789.135-1.452.405-1.991a4.13 4.13 0 0 1 1.154-1.357h-.029c.5-.327 1.02-.596 1.558-.808.559-.212 1.088-.317 1.588-.317h4.387c.481 0 .991.105 1.53.317a7.48 7.48 0 0 1 1.558.808h-.029a3.56 3.56 0 0 1 1.155 1.443c.269.577.404 1.251.404 2.02V22.48c0 .924-.529 1.386-1.587 1.386-.212 0-.414-.01-.607-.03a1.446 1.446 0 0 1-.49-.144 1.295 1.295 0 0 1-.346-.375 1.64 1.64 0 0 1-.116-.664l-.029-6.32h-5.83c-.423 0-.75.048-.981.144a1.16 1.16 0 0 0-.548.462c-.154.327-.27.586-.347.78a1.921 1.921 0 0 0-.086.605v1.126c0 .5.144.885.433 1.154.307.25.827.376 1.558.376h3.232c.712 0 1.068.451 1.068 1.356 0 .384-.086.712-.259.981-.174.25-.443.375-.809.375h-3.78Z"/></g><defs><clipPath id="a"><path fill="#fff" d="M0 0h109.308v28H0z"/></clipPath></defs></svg>