<svg xmlns="http://www.w3.org/2000/svg" width="32" height="32" fill="none"><path stroke="url(#a)" d="M15.875 22.723c-3.057 0-5.982-2.797-7.106-6.724H8.75c-.998 0-1.75-1.334-1.75-3.103 0-1.605.36-2.654 1.002-2.994L8 8.24V5.375l-2.545-.24a.508.508 0 0 1-.452-.463.517.517 0 0 1 .354-.547l10-3.104a.5.5 0 0 1 .188-.019l11 1.035c.034.003.065.016.097.027.02.006.043.008.061.017.057.025.108.06.15.104.004.004.005.008.01.012a.5.5 0 0 1 .091.143c.01.02.011.042.018.064.01.032.022.062.025.095.001.01-.002.018-.002.028.001.008.005.016.005.025v5.05l.947 1.96c.06.122.07.263.028.394l-1 3.104a.504.504 0 0 1-.475.353.502.502 0 0 1-.474-.353l-1-3.104a.528.528 0 0 1 .027-.394L26 7.602V3.246l-2 .621V8.24l.004 1.81c.002.12.005.256.005.386.637.345.991 1.388.991 2.977 0 1.77-.752 3.103-1.75 3.103h-.02c-1.08 3.627-4.1 6.207-7.355 6.207Zm0 0c2.112 0 4.156-.995 5.757-2.802a.492.492 0 0 1 .606-.106l3.429 1.916C28.859 22.898 31 26.029 31 29.533v.95a.526.526 0 0 1-.146.365.492.492 0 0 1-.354.152l-29-.002c-.276 0-.5-.23-.5-.517v-1.208c0-3.52 2.159-6.662 5.372-7.816l3.157-1.648a.488.488 0 0 1 .592.112c1.601 1.807 3.644 2.802 5.754 2.802ZM9 7.92V5.469l7.456.701a.488.488 0 0 0 .189-.02L23 4.178V7.92c-.751.362-3.163 1.354-7 1.354-3.838 0-6.25-.992-7-1.354Zm10.5 4.458h-1c-.276 0-.5.23-.5.517a.51.51 0 0 0 .5.517h1c.277 0 .5-.232.5-.517a.508.508 0 0 0-.5-.517Zm-6 0h-1c-.276 0-.5.23-.5.517a.51.51 0 0 0 .5.517h1c.277 0 .5-.232.5-.517a.508.508 0 0 0-.5-.517Z"/><defs><linearGradient id="a" x1="1" x2="31" y1="1" y2="1" gradientUnits="userSpaceOnUse"><stop offset=".008" stop-color="#EC5C03"/><stop offset=".53" stop-color="#853E9F"/><stop offset="1" stop-color="#3A2DE3"/></linearGradient></defs></svg>