<svg xmlns="http://www.w3.org/2000/svg" width="30" height="30" fill="none"><path stroke="url(#a)" stroke-linecap="round" d="M2.103 27.014a6.881 6.881 0 0 1-1.596-4.102h5.14a.5.5 0 0 0 0-1H.5v-5.883h6.412v3.383a.5.5 0 0 0 1 0v-3.383h1.264a.5.5 0 1 0 0-1H7.912V8.09h4.617a.5.5 0 1 0 0-1H7.912V.5h7.117v5.235a.5.5 0 0 0 1 0V.5h5.886l.038 6.588h-4.659a.5.5 0 0 0 0 1h4.665l.026 4.444a.5.5 0 0 0 1-.005l-.026-4.439H29.5v6.941h-5.147a.5.5 0 0 0 0 1H29.5v5.883h-6.46l-.026-4.62a.5.5 0 1 0-1 .005l.027 4.615h-6.012v-5.883h3.383a.5.5 0 1 0 0-1h-3.383v-3.558a.5.5 0 1 0-1 0v10.441h-4.617a.5.5 0 1 0 0 1h4.617V29.5H7.912v-3.912a.5.5 0 0 0-1 0v3.894a6.884 6.884 0 0 1-4.116-1.75l4.565-3.65a9.5 9.5 0 0 0 2.625-3.298l5.363-11.139a.5.5 0 0 1 .814-.126l4.414 4.684a2.5 2.5 0 0 0 3.765-.145l3.4-4.215a.5.5 0 1 0-.778-.627l-3.4 4.215a1.5 1.5 0 0 1-2.26.087l-4.413-4.684a1.5 1.5 0 0 0-2.443.377l-5.363 11.14a8.5 8.5 0 0 1-2.349 2.95l-4.578 3.662a.511.511 0 0 0-.055.051ZM6.912 15.03H.5V8.09h6.412v6.94Zm0-7.94H.507A6.913 6.913 0 0 1 6.912.517v6.57ZM22.915.517a7.09 7.09 0 0 1 6.568 6.57h-6.53l-.038-6.57Zm.132 22.394h6.446a6.913 6.913 0 0 1-6.408 6.57l-.038-6.57Zm-1 0 .038 6.588H16.03v-6.588h6.018Z"/><defs><linearGradient id="a" x1="0" x2="30" y1="0" y2="0" gradientUnits="userSpaceOnUse"><stop offset=".008" stop-color="#EC5C03"/><stop offset=".53" stop-color="#853E9F"/><stop offset="1" stop-color="#3A2DE3"/></linearGradient></defs></svg>