<svg xmlns="http://www.w3.org/2000/svg" width="32" height="32" fill="none"><path stroke="#fff" stroke-linecap="round" stroke-linejoin="round" d="M16 18.348c2.369 0 4.289-1.869 4.289-4.174C20.289 11.869 18.369 10 16 10c-2.368 0-4.289 1.869-4.289 4.174 0 2.305 1.92 4.174 4.29 4.174Z"/><path stroke="#fff" stroke-linecap="round" stroke-linejoin="round" d="M9.5 22a7.409 7.409 0 0 1 2.747-2.674A7.665 7.665 0 0 1 16 18.347c1.317 0 2.612.338 3.753.979A7.409 7.409 0 0 1 22.5 22"/><path stroke="#fff" d="m15.531 29.375-.156.475.156-.475C13.661 28.759 4.5 25.156 4.5 14.338V7A1.5 1.5 0 0 1 6 5.5h20A1.5 1.5 0 0 1 27.5 7v7.338c0 10.818-9.16 14.421-11.031 15.037l.156.475-.156-.475a1.5 1.5 0 0 1-.938 0Z"/></svg>