<svg xmlns="http://www.w3.org/2000/svg" width="30" height="30" fill="none"><path fill="url(#a)" fill-rule="evenodd" d="M18.517 17.948c0 1.228-1.128 2.238-2.586 2.408v-4.815c1.458.17 2.586 1.18 2.586 2.407Zm-3.448-3.34c-1.458-.17-2.586-1.18-2.586-2.406 0-1.228 1.128-2.237 2.586-2.408v4.814Zm3.448-2.406a.432.432 0 0 0 .862 0c0-1.697-1.514-3.083-3.448-3.268v-1.33a.431.431 0 0 0-.862 0v1.33c-1.935.185-3.448 1.572-3.448 3.268 0 1.696 1.513 3.081 3.448 3.266v4.888c-1.458-.17-2.586-1.18-2.586-2.407a.431.431 0 0 0-.862 0c0 1.695 1.513 3.082 3.448 3.268v.18a.431.431 0 0 0 .862 0v-.18c1.935-.186 3.448-1.573 3.448-3.268 0-1.696-1.514-3.083-3.448-3.269V9.794c1.458.171 2.586 1.18 2.586 2.408Zm-2.586 13.914V23.12a.431.431 0 0 0-.862 0v2.996c-6.073-.224-10.961-5.114-11.186-11.185h6.444a.431.431 0 0 0 0-.862H3.883C4.108 7.997 8.996 3.107 15.07 2.883V5.88a.431.431 0 0 0 .862 0V2.883c6.072.224 10.961 5.114 11.185 11.186h-6.444a.431.431 0 0 0 0 .862h6.444c-.224 6.071-5.113 10.961-11.185 11.185ZM15.5 2C8.608 2 3 7.608 3 14.5S8.608 27 15.5 27 28 21.392 28 14.5 22.392 2 15.5 2Z" clip-rule="evenodd"/><path fill="#fff" fill-opacity=".3" fill-rule="evenodd" d="M18.517 17.948c0 1.228-1.128 2.238-2.586 2.408v-4.815c1.458.17 2.586 1.18 2.586 2.407Zm-3.448-3.34c-1.458-.17-2.586-1.18-2.586-2.406 0-1.228 1.128-2.237 2.586-2.408v4.814Zm3.448-2.406a.432.432 0 0 0 .862 0c0-1.697-1.514-3.083-3.448-3.268v-1.33a.431.431 0 0 0-.862 0v1.33c-1.935.185-3.448 1.572-3.448 3.268 0 1.696 1.513 3.081 3.448 3.266v4.888c-1.458-.17-2.586-1.18-2.586-2.407a.431.431 0 0 0-.862 0c0 1.695 1.513 3.082 3.448 3.268v.18a.431.431 0 0 0 .862 0v-.18c1.935-.186 3.448-1.573 3.448-3.268 0-1.696-1.514-3.083-3.448-3.269V9.794c1.458.171 2.586 1.18 2.586 2.408Zm-2.586 13.914V23.12a.431.431 0 0 0-.862 0v2.996c-6.073-.224-10.961-5.114-11.186-11.185h6.444a.431.431 0 0 0 0-.862H3.883C4.108 7.997 8.996 3.107 15.07 2.883V5.88a.431.431 0 0 0 .862 0V2.883c6.072.224 10.961 5.114 11.185 11.186h-6.444a.431.431 0 0 0 0 .862h6.444c-.224 6.071-5.113 10.961-11.185 11.185ZM15.5 2C8.608 2 3 7.608 3 14.5S8.608 27 15.5 27 28 21.392 28 14.5 22.392 2 15.5 2Z" clip-rule="evenodd"/><defs><linearGradient id="a" x1="3" x2="28" y1="2" y2="2" gradientUnits="userSpaceOnUse"><stop offset=".008" stop-color="#EC5C03"/><stop offset=".53" stop-color="#853E9F"/><stop offset="1" stop-color="#3A2DE3"/></linearGradient></defs></svg>