<svg xmlns="http://www.w3.org/2000/svg" width="40" height="40" fill="none"><rect width="40" height="40" fill="#1D9BF0" rx="4"/><path fill="#fff" d="M15.85 30.32c9.43 0 14.59-7.82 14.59-14.59 0-.22 0-.44-.01-.66 1-.72 1.87-1.63 2.56-2.66-.92.41-1.91.68-2.95.81a5.16 5.16 0 0 0 2.26-2.84 10.2 10.2 0 0 1-3.26 1.24c-.94-1-2.27-1.62-3.74-1.62-2.83 0-5.13 2.3-5.13 5.13 0 .4.05.79.13 1.17-4.26-.21-8.04-2.26-10.57-5.36-.44.76-.69 1.64-.69 2.58 0 1.78.91 3.35 2.28 4.27-.84-.03-1.63-.26-2.32-.64v.07c0 2.48 1.77 4.56 4.11 5.03a5 5 0 0 1-1.35.18c-.33 0-.65-.03-.96-.09a5.128 5.128 0 0 0 4.79 3.56c-1.76 1.38-3.97 2.2-6.37 2.2-.41 0-.82-.02-1.22-.07 2.26 1.44 4.96 2.29 7.85 2.29Z"/></svg>