<svg xmlns="http://www.w3.org/2000/svg" width="40" height="40" fill="none"><path fill="#fff" fill-rule="evenodd" d="M0 20C0 8.954 8.956 0 20 0c11.046 0 20 8.954 20 20 0 11.044-8.954 20-20 20C8.956 40 0 31.044 0 20Zm31.18-4.095c0-.23 0-.457-.016-.685a10.755 10.755 0 0 0 2.642-2.742c-.965.428-1.99.71-3.04.833a5.314 5.314 0 0 0 2.327-2.928 10.623 10.623 0 0 1-3.362 1.285 5.3 5.3 0 0 0-9.023 4.83 15.027 15.027 0 0 1-10.911-5.532 5.301 5.301 0 0 0 1.639 7.07 5.26 5.26 0 0 1-2.403-.664v.068c0 2.52 1.777 4.69 4.247 5.19a5.277 5.277 0 0 1-2.39.09 5.3 5.3 0 0 0 4.946 3.677A10.631 10.631 0 0 1 8 28.591a14.989 14.989 0 0 0 8.116 2.374v.004c9.738 0 15.064-8.068 15.064-15.064Z" clip-rule="evenodd"/></svg>