<svg xmlns="http://www.w3.org/2000/svg" width="30" height="30" fill="none"><path stroke="url(#a)" stroke-linecap="round" stroke-linejoin="round" d="M22.5 23.438v2.812"/><path stroke="#fff" stroke-linecap="round" stroke-linejoin="round" stroke-opacity=".3" d="M22.5 23.438v2.812"/><path stroke="url(#b)" stroke-linecap="round" stroke-linejoin="round" d="M7.5 23.438v2.812"/><path stroke="#fff" stroke-linecap="round" stroke-linejoin="round" stroke-opacity=".3" d="M7.5 23.438v2.812"/><path stroke="url(#c)" stroke-linecap="round" stroke-linejoin="round" d="M25.313 5.625H4.688a.937.937 0 0 0-.938.938V22.5c0 .518.42.938.938.938h20.625c.517 0 .937-.42.937-.938V6.562a.937.937 0 0 0-.938-.937Z"/><path stroke="#fff" stroke-linecap="round" stroke-linejoin="round" stroke-opacity=".3" d="M25.313 5.625H4.688a.937.937 0 0 0-.938.938V22.5c0 .518.42.938.938.938h20.625c.517 0 .937-.42.937-.938V6.562a.937.937 0 0 0-.938-.937Z"/><path fill="url(#d)" d="M19.156 15a1.344 1.344 0 1 1-2.687 0 1.344 1.344 0 0 1 2.687 0Z"/><path stroke="url(#e)" stroke-width=".125" d="M19.156 15a1.344 1.344 0 1 1-2.687 0 1.344 1.344 0 0 1 2.687 0Z"/><path stroke="#fff" stroke-opacity=".3" stroke-width=".125" d="M19.156 15a1.344 1.344 0 1 1-2.687 0 1.344 1.344 0 0 1 2.687 0Z"/><path stroke="url(#f)" stroke-linecap="round" stroke-linejoin="round" d="M17.813 15h8.437"/><path stroke="#fff" stroke-linecap="round" stroke-linejoin="round" stroke-opacity=".3" d="M17.813 15h8.437"/><path stroke="url(#g)" stroke-linecap="round" stroke-linejoin="round" d="M17.813 19.688a4.688 4.688 0 1 0 0-9.376 4.688 4.688 0 0 0 0 9.376Z"/><path stroke="#fff" stroke-linecap="round" stroke-linejoin="round" stroke-opacity=".3" d="M17.813 19.688a4.688 4.688 0 1 0 0-9.376 4.688 4.688 0 0 0 0 9.376Z"/><defs><linearGradient id="a" x1="22.5" x2="23.5" y1="23.438" y2="23.438" gradientUnits="userSpaceOnUse"><stop offset=".008" stop-color="#EC5C03"/><stop offset=".53" stop-color="#853E9F"/><stop offset="1" stop-color="#3A2DE3"/></linearGradient><linearGradient id="b" x1="7.5" x2="8.5" y1="23.438" y2="23.438" gradientUnits="userSpaceOnUse"><stop offset=".008" stop-color="#EC5C03"/><stop offset=".53" stop-color="#853E9F"/><stop offset="1" stop-color="#3A2DE3"/></linearGradient><linearGradient id="c" x1="3.75" x2="26.25" y1="5.625" y2="5.625" gradientUnits="userSpaceOnUse"><stop offset=".008" stop-color="#EC5C03"/><stop offset=".53" stop-color="#853E9F"/><stop offset="1" stop-color="#3A2DE3"/></linearGradient><linearGradient id="d" x1="16.406" x2="19.219" y1="13.594" y2="13.594" gradientUnits="userSpaceOnUse"><stop offset=".008" stop-color="#EC5C03"/><stop offset=".53" stop-color="#853E9F"/><stop offset="1" stop-color="#3A2DE3"/></linearGradient><linearGradient id="e" x1="16.406" x2="19.219" y1="13.594" y2="13.594" gradientUnits="userSpaceOnUse"><stop offset=".008" stop-color="#EC5C03"/><stop offset=".53" stop-color="#853E9F"/><stop offset="1" stop-color="#3A2DE3"/></linearGradient><linearGradient id="f" x1="17.813" x2="26.25" y1="15" y2="15" gradientUnits="userSpaceOnUse"><stop offset=".008" stop-color="#EC5C03"/><stop offset=".53" stop-color="#853E9F"/><stop offset="1" stop-color="#3A2DE3"/></linearGradient><linearGradient id="g" x1="13.125" x2="22.5" y1="10.313" y2="10.313" gradientUnits="userSpaceOnUse"><stop offset=".008" stop-color="#EC5C03"/><stop offset=".53" stop-color="#853E9F"/><stop offset="1" stop-color="#3A2DE3"/></linearGradient></defs></svg>