<svg xmlns="http://www.w3.org/2000/svg" width="40" height="40" fill="none"><path fill="#fff" fill-rule="evenodd" d="M0 20C0 8.954 8.956 0 20 0c11.046 0 20 8.954 20 20 0 11.044-8.954 20-20 20C8.956 40 0 31.044 0 20Zm30.127-6.78c.351.354.604.795.733 1.28.473 1.78.473 5.5.473 5.5s0 3.72-.473 5.5a2.847 2.847 0 0 1-2.003 2.021C27.088 28 20 28 20 28s-7.089 0-8.857-.479a2.85 2.85 0 0 1-2.003-2.02C8.666 23.72 8.666 20 8.666 20s0-3.72.474-5.503a2.849 2.849 0 0 1 2.003-2.02C12.911 12 20 12 20 12s7.088 0 8.857.479c.48.13.918.386 1.27.74Zm-6.51 6.754-5.869-3.388v6.828l5.87-3.44Z" clip-rule="evenodd"/></svg>